<?xml version="1.0" encoding="UTF-8" standalone="no"?>
<svg
   xmlns:dc="http://purl.org/dc/elements/1.1/"
   xmlns:cc="http://creativecommons.org/ns#"
   xmlns:rdf="http://www.w3.org/1999/02/22-rdf-syntax-ns#"
   xmlns:svg="http://www.w3.org/2000/svg"
   xmlns="http://www.w3.org/2000/svg"
   xmlns:sodipodi="http://sodipodi.sourceforge.net/DTD/sodipodi-0.dtd"
   xmlns:inkscape="http://www.inkscape.org/namespaces/inkscape"
   version="1.1"
   width="32"
   height="32"
   viewBox="0 0 16 16"
   id="svg6"
   sodipodi:docname="overleaf16.svg"
   inkscape:version="1.0.2 (e86c870879, 2021-01-15)">
  <metadata
     id="metadata12">
    <rdf:RDF>
      <cc:Work
         rdf:about="">
        <dc:format>image/svg+xml</dc:format>
        <dc:type
           rdf:resource="http://purl.org/dc/dcmitype/StillImage" />
        <dc:title>overleaf</dc:title>
      </cc:Work>
    </rdf:RDF>
  </metadata>
  <defs
     id="defs10" />
  <sodipodi:namedview
     pagecolor="#ffffff"
     bordercolor="#666666"
     borderopacity="1"
     objecttolerance="10"
     gridtolerance="10"
     guidetolerance="10"
     inkscape:pageopacity="0"
     inkscape:pageshadow="2"
     inkscape:window-width="1387"
     inkscape:window-height="961"
     id="namedview8"
     showgrid="false"
     scale-x="0.5"
     inkscape:zoom="12.913177"
     inkscape:cx="3.0287533"
     inkscape:cy="22.195222"
     inkscape:window-x="0"
     inkscape:window-y="0"
     inkscape:window-maximized="0"
     inkscape:current-layer="svg6" />
  <title
     id="title2">overleaf</title>
  <path
     d="M 5.1668215,4.1360022 C 3.0057128,5.4252432 1.6446093,7.7205589 1.5532345,10.233841 1.5556145,12.20411 2.649256,14.013997 4.3958468,14.9306 6.1410099,15.847679 8.2507204,15.718707 9.8764295,14.601269 11.500235,13.483356 12.3702,11.554968 12.134624,9.5965969 11.901904,7.6382263 10.600289,5.97254 8.7580411,5.2681925 8.1583937,5.0259546 7.5187703,4.9041216 6.8748636,4.9117361 5.7245884,5.6879454 4.8022742,6.7530329 4.2026272,8.0027735 4.9683669,7.0885496 6.1481486,6.6297726 7.3303098,6.7858707 8.5158024,6.9419696 9.5342504,7.6905765 10.037287,8.7737484 10.540325,9.85454 10.453709,11.118558 9.8121821,12.124632 9.1673232,13.128327 8.0546453,13.733209 6.862014,13.730829 c -1.0236831,0 -1.995016,-0.445928 -2.6593868,-1.224041 C 3.3421813,11.547353 2.9704954,10.243359 3.1960769,8.9741067 3.8775805,4.9017416 8.7580411,2.5545521 12.372103,1.6450872 10.698803,2.450328 9.0878469,3.3774008 7.5535117,4.4210722 11.92094,6.106271 12.622432,2.43034 14.665039,0.78464161 12.632426,-0.0110802 5.1768156,-0.3037656 5.1663456,4.1383822 Z"
     id="path4"
     style="stroke-width:0.47591;fill:#138a07;fill-opacity:1" />
</svg>
