<?xml version="1.0" encoding="UTF-8" standalone="no"?>
<svg
   xmlns:dc="http://purl.org/dc/elements/1.1/"
   xmlns:cc="http://creativecommons.org/ns#"
   xmlns:rdf="http://www.w3.org/1999/02/22-rdf-syntax-ns#"
   xmlns:svg="http://www.w3.org/2000/svg"
   xmlns="http://www.w3.org/2000/svg"
   xmlns:sodipodi="http://sodipodi.sourceforge.net/DTD/sodipodi-0.dtd"
   xmlns:inkscape="http://www.inkscape.org/namespaces/inkscape"
   version="1.1"
   width="24"
   height="24"
   viewBox="0 0 12 12"
   id="svg6"
   sodipodi:docname="overleaf24.svg"
   inkscape:version="1.0.2 (e86c870879, 2021-01-15)">
  <metadata
     id="metadata12">
    <rdf:RDF>
      <cc:Work
         rdf:about="">
        <dc:format>image/svg+xml</dc:format>
        <dc:type
           rdf:resource="http://purl.org/dc/dcmitype/StillImage" />
        <dc:title>overleaf</dc:title>
      </cc:Work>
    </rdf:RDF>
  </metadata>
  <defs
     id="defs10" />
  <sodipodi:namedview
     pagecolor="#ffffff"
     bordercolor="#666666"
     borderopacity="1"
     objecttolerance="10"
     gridtolerance="10"
     guidetolerance="10"
     inkscape:pageopacity="0"
     inkscape:pageshadow="2"
     inkscape:window-width="1387"
     inkscape:window-height="961"
     id="namedview8"
     showgrid="false"
     scale-x="0.5"
     inkscape:zoom="12.913177"
     inkscape:cx="3.0287533"
     inkscape:cy="22.195222"
     inkscape:window-x="0"
     inkscape:window-y="0"
     inkscape:window-maximized="0"
     inkscape:current-layer="svg6"
     inkscape:document-rotation="0" />
  <title
     id="title2">overleaf</title>
  <path
     d="M 4.1043311,3.4054954 C 2.6524716,4.2716233 1.7380653,5.8136449 1.6766786,7.5020989 1.6782779,8.8257499 2.4129995,10.041654 3.5863808,10.65744 4.758803,11.273544 6.1761324,11.186899 7.2683041,10.436191 8.3591967,9.685163 8.9436499,8.3896485 8.7853869,7.0739904 8.6290429,5.7583327 7.7546018,4.6393041 6.5169568,4.1661148 6.1141063,4.0033765 5.6843994,3.9215275 5.2518149,3.926643 4.4790459,4.44811 3.8594237,5.1636489 3.4565734,6.0032401 3.9710069,5.3890532 4.7635988,5.0808412 5.5577895,5.18571 6.3542178,5.290579 7.0384239,5.7935023 7.3763702,6.5211907 7.7143173,7.2472799 7.6561276,8.0964627 7.2251418,8.7723558 6.7919177,9.44665 6.044407,9.8530176 5.2431823,9.8514183 4.5554594,9.8514183 3.902906,9.5518384 3.4565734,9.0290927 2.8785153,8.3845325 2.6288121,7.5084932 2.7803605,6.6557938 3.238203,3.9199286 6.5169568,2.3430576 8.9449284,1.7320679 7.8207848,2.2730386 6.7385245,2.8958575 5.7077391,3.5970089 8.6418315,4.7291465 9.1131025,2.2596104 10.485351,1.1540098 9.1198166,0.61943409 4.1110454,0.42280441 4.1040114,3.4070943 Z"
     id="path4"
     style="fill:#138a07;fill-opacity:1;stroke-width:0.319722" />
</svg>
